<mxfile host="app.diagrams.net" agent="Mozilla/5.0 (X11; Linux x86_64) AppleWebKit/537.36 (KHTML, like Gecko) Chrome/133.0.0.0 Safari/537.36" version="26.0.16">
  <diagram name="Page-1" id="gstGWk0Cc7kLj-4uaBpW">
    <mxGraphModel dx="1649" dy="502" grid="1" gridSize="10" guides="1" tooltips="1" connect="1" arrows="1" fold="1" page="1" pageScale="1" pageWidth="850" pageHeight="1100" math="0" shadow="0">
      <root>
        <mxCell id="0" />
        <mxCell id="1" parent="0" />
        <mxCell id="yB2L2-EjOWqu-fRkwn4k-21" style="edgeStyle=orthogonalEdgeStyle;rounded=0;orthogonalLoop=1;jettySize=auto;html=1;entryX=0;entryY=0.5;entryDx=0;entryDy=0;" edge="1" parent="1" source="yB2L2-EjOWqu-fRkwn4k-1" target="yB2L2-EjOWqu-fRkwn4k-20">
          <mxGeometry relative="1" as="geometry" />
        </mxCell>
        <mxCell id="yB2L2-EjOWqu-fRkwn4k-1" value="Nestjs" style="rounded=0;whiteSpace=wrap;html=1;" vertex="1" parent="1">
          <mxGeometry x="290" y="140" width="70" height="60" as="geometry" />
        </mxCell>
        <mxCell id="yB2L2-EjOWqu-fRkwn4k-9" style="edgeStyle=orthogonalEdgeStyle;rounded=0;orthogonalLoop=1;jettySize=auto;html=1;entryX=0;entryY=0.5;entryDx=0;entryDy=0;startArrow=classic;startFill=1;" edge="1" parent="1" source="yB2L2-EjOWqu-fRkwn4k-2" target="yB2L2-EjOWqu-fRkwn4k-1">
          <mxGeometry relative="1" as="geometry" />
        </mxCell>
        <mxCell id="yB2L2-EjOWqu-fRkwn4k-2" value="Angular" style="rounded=0;whiteSpace=wrap;html=1;" vertex="1" parent="1">
          <mxGeometry x="56" y="140" width="70" height="60" as="geometry" />
        </mxCell>
        <mxCell id="yB2L2-EjOWqu-fRkwn4k-3" value="AI&lt;br&gt;(Anthropic)" style="rounded=0;whiteSpace=wrap;html=1;" vertex="1" parent="1">
          <mxGeometry x="546" y="140" width="70" height="60" as="geometry" />
        </mxCell>
        <mxCell id="yB2L2-EjOWqu-fRkwn4k-8" value="Storage&lt;br&gt;(.gongsho&amp;nbsp;&lt;span style=&quot;background-color: transparent; color: light-dark(rgb(0, 0, 0), rgb(255, 255, 255));&quot;&gt;directory)&lt;/span&gt;" style="text;html=1;align=center;verticalAlign=middle;whiteSpace=wrap;rounded=0;" vertex="1" parent="1">
          <mxGeometry x="470" y="390" width="118.75" height="50" as="geometry" />
        </mxCell>
        <mxCell id="yB2L2-EjOWqu-fRkwn4k-11" value="" style="endArrow=none;dashed=1;html=1;dashPattern=1 3;strokeWidth=2;rounded=0;" edge="1" parent="1">
          <mxGeometry width="50" height="50" relative="1" as="geometry">
            <mxPoint x="-20" y="260" as="sourcePoint" />
            <mxPoint x="590" y="260" as="targetPoint" />
          </mxGeometry>
        </mxCell>
        <mxCell id="yB2L2-EjOWqu-fRkwn4k-12" value="Libraries" style="text;html=1;align=center;verticalAlign=middle;resizable=0;points=[];autosize=1;strokeColor=none;fillColor=none;" vertex="1" parent="1">
          <mxGeometry x="-23" y="260" width="70" height="30" as="geometry" />
        </mxCell>
        <mxCell id="yB2L2-EjOWqu-fRkwn4k-14" value="Shared by both apps" style="text;html=1;align=center;verticalAlign=middle;resizable=0;points=[];autosize=1;strokeColor=none;fillColor=none;" vertex="1" parent="1">
          <mxGeometry x="190" y="280" width="130" height="30" as="geometry" />
        </mxCell>
        <mxCell id="yB2L2-EjOWqu-fRkwn4k-18" value="types" style="rounded=1;whiteSpace=wrap;html=1;" vertex="1" parent="1">
          <mxGeometry x="170" y="310" width="60" height="30" as="geometry" />
        </mxCell>
        <mxCell id="yB2L2-EjOWqu-fRkwn4k-19" value="Text-To-Blocks" style="rounded=1;whiteSpace=wrap;html=1;" vertex="1" parent="1">
          <mxGeometry x="240" y="310" width="102.5" height="30" as="geometry" />
        </mxCell>
        <mxCell id="yB2L2-EjOWqu-fRkwn4k-22" style="edgeStyle=orthogonalEdgeStyle;rounded=0;orthogonalLoop=1;jettySize=auto;html=1;entryX=0;entryY=0.5;entryDx=0;entryDy=0;" edge="1" parent="1" source="yB2L2-EjOWqu-fRkwn4k-20" target="yB2L2-EjOWqu-fRkwn4k-24">
          <mxGeometry relative="1" as="geometry">
            <mxPoint x="530" y="290" as="targetPoint" />
          </mxGeometry>
        </mxCell>
        <mxCell id="yB2L2-EjOWqu-fRkwn4k-20" value="core" style="rounded=1;whiteSpace=wrap;html=1;" vertex="1" parent="1">
          <mxGeometry x="425" y="280" width="60" height="30" as="geometry" />
        </mxCell>
        <mxCell id="yB2L2-EjOWqu-fRkwn4k-23" style="edgeStyle=orthogonalEdgeStyle;rounded=0;orthogonalLoop=1;jettySize=auto;html=1;entryX=0.471;entryY=-0.08;entryDx=0;entryDy=0;entryPerimeter=0;" edge="1" parent="1" source="yB2L2-EjOWqu-fRkwn4k-20" target="yB2L2-EjOWqu-fRkwn4k-27">
          <mxGeometry relative="1" as="geometry">
            <mxPoint x="455" y="377.5" as="targetPoint" />
          </mxGeometry>
        </mxCell>
        <mxCell id="yB2L2-EjOWqu-fRkwn4k-25" style="edgeStyle=orthogonalEdgeStyle;rounded=0;orthogonalLoop=1;jettySize=auto;html=1;entryX=0.5;entryY=1;entryDx=0;entryDy=0;" edge="1" parent="1" source="yB2L2-EjOWqu-fRkwn4k-24" target="yB2L2-EjOWqu-fRkwn4k-3">
          <mxGeometry relative="1" as="geometry" />
        </mxCell>
        <mxCell id="yB2L2-EjOWqu-fRkwn4k-24" value="SDK" style="rounded=1;whiteSpace=wrap;html=1;" vertex="1" parent="1">
          <mxGeometry x="550" y="280" width="60" height="30" as="geometry" />
        </mxCell>
        <mxCell id="yB2L2-EjOWqu-fRkwn4k-27" value="" style="shape=cylinder3;whiteSpace=wrap;html=1;boundedLbl=1;backgroundOutline=1;size=15;" vertex="1" parent="1">
          <mxGeometry x="436" y="380" width="40" height="53.33" as="geometry" />
        </mxCell>
        <mxCell id="yB2L2-EjOWqu-fRkwn4k-28" value="Apps" style="text;html=1;align=center;verticalAlign=middle;resizable=0;points=[];autosize=1;strokeColor=none;fillColor=none;" vertex="1" parent="1">
          <mxGeometry x="-20" y="100" width="50" height="30" as="geometry" />
        </mxCell>
        <mxCell id="yB2L2-EjOWqu-fRkwn4k-29" value="(Anthropic)" style="text;html=1;align=center;verticalAlign=middle;resizable=0;points=[];autosize=1;strokeColor=none;fillColor=none;" vertex="1" parent="1">
          <mxGeometry x="540" y="308" width="80" height="30" as="geometry" />
        </mxCell>
        <mxCell id="yB2L2-EjOWqu-fRkwn4k-30" value="ui&lt;br&gt;(spartan-ng)" style="rounded=1;whiteSpace=wrap;html=1;" vertex="1" parent="1">
          <mxGeometry x="47" y="290" width="80" height="40" as="geometry" />
        </mxCell>
        <mxCell id="yB2L2-EjOWqu-fRkwn4k-35" style="edgeStyle=orthogonalEdgeStyle;rounded=0;orthogonalLoop=1;jettySize=auto;html=1;entryX=0.555;entryY=0;entryDx=0;entryDy=0;entryPerimeter=0;" edge="1" parent="1" source="yB2L2-EjOWqu-fRkwn4k-2" target="yB2L2-EjOWqu-fRkwn4k-30">
          <mxGeometry relative="1" as="geometry" />
        </mxCell>
        <mxCell id="yB2L2-EjOWqu-fRkwn4k-36" value="Rest and SSE" style="text;html=1;align=center;verticalAlign=middle;resizable=0;points=[];autosize=1;strokeColor=none;fillColor=none;" vertex="1" parent="1">
          <mxGeometry x="160" y="140" width="100" height="30" as="geometry" />
        </mxCell>
        <mxCell id="yB2L2-EjOWqu-fRkwn4k-37" value="" style="endArrow=none;html=1;rounded=0;entryX=0.25;entryY=1;entryDx=0;entryDy=0;startFill=1;startArrow=classic;exitX=0.627;exitY=-0.086;exitDx=0;exitDy=0;exitPerimeter=0;" edge="1" parent="1" source="yB2L2-EjOWqu-fRkwn4k-14" target="yB2L2-EjOWqu-fRkwn4k-1">
          <mxGeometry width="50" height="50" relative="1" as="geometry">
            <mxPoint x="250" y="270" as="sourcePoint" />
            <mxPoint x="370" y="160" as="targetPoint" />
          </mxGeometry>
        </mxCell>
        <mxCell id="yB2L2-EjOWqu-fRkwn4k-38" value="" style="endArrow=none;html=1;rounded=0;exitX=0.359;exitY=-0.162;exitDx=0;exitDy=0;exitPerimeter=0;entryX=1;entryY=1;entryDx=0;entryDy=0;startFill=1;startArrow=classic;" edge="1" parent="1" source="yB2L2-EjOWqu-fRkwn4k-14" target="yB2L2-EjOWqu-fRkwn4k-2">
          <mxGeometry width="50" height="50" relative="1" as="geometry">
            <mxPoint x="320" y="210" as="sourcePoint" />
            <mxPoint x="370" y="160" as="targetPoint" />
          </mxGeometry>
        </mxCell>
      </root>
    </mxGraphModel>
  </diagram>
</mxfile>
